<svg xmlns="http://www.w3.org/2000/svg" width="12" height="16" viewBox="0 0 12 16"><path d="M302.357,803.108a5.759,5.759,0,0,1,4.17-1.608,5.961,5.961,0,0,1,4.17,1.608,5.313,5.313,0,0,1,1.7,3.94,6.528,6.528,0,0,1-.6,2.653,18.245,18.245,0,0,1-1.532,2.814c-.6.884-1.191,1.688-1.7,2.492a13.9,13.9,0,0,1-1.447,1.849l-.681.643c-.17-.161-.34-.4-.681-.724a17.917,17.917,0,0,1-1.447-1.769c-.681-.884-1.277-1.688-1.787-2.492a21.2,21.2,0,0,1-1.447-2.734,7.11,7.11,0,0,1-.681-2.734A6.787,6.787,0,0,1,302.357,803.108Zm2.723,5.387a2.366,2.366,0,0,0,3.064,0,2.056,2.056,0,0,0,0-2.894,2.366,2.366,0,0,0-3.064,0,2.056,2.056,0,0,0,0,2.894Z" transform="translate(-300.4 -801.5)" fill="#c6c9cd"/></svg>